<svg width="64" height="64" viewBox="0 0 64 64" xmlns="http://www.w3.org/2000/svg">
  <ellipse cx="32" cy="35" rx="14" ry="16" fill="#8B4513" stroke="#654321" stroke-width="2"/>
  <circle cx="28" cy="30" r="3" fill="#000"/>
  <circle cx="36" cy="30" r="3" fill="#000"/>
  <path d="M32 40 Q30 45 25 47" stroke="#000" stroke-width="2" fill="none" stroke-linecap="round"/>
  <path d="M32 40 Q34 45 39 47" stroke="#000" stroke-width="2" fill="none" stroke-linecap="round"/>
  <path d="M18 35 Q14 30 10 25" stroke="#8B4513" stroke-width="3" fill="none" stroke-linecap="round"/>
  <path d="M46 35 Q50 30 54 25" stroke="#8B4513" stroke-width="3" fill="none" stroke-linecap="round"/>
  <path d="M20 25 Q15 20 10 15" stroke="#8B4513" stroke-width="2" fill="none" stroke-linecap="round"/>
  <path d="M44 25 Q49 20 54 15" stroke="#8B4513" stroke-width="2" fill="none" stroke-linecap="round"/>
  <path d="M32 51 Q30 55 25 57" stroke="#8B4513" stroke-width="3" fill="none" stroke-linecap="round"/>
  <path d="M32 51 Q34 55 39 57" stroke="#8B4513" stroke-width="3" fill="none" stroke-linecap="round"/>
  <path d="M28 25 Q25 20 20 18" stroke="#8B4513" stroke-width="2" fill="none" stroke-linecap="round"/>
  <path d="M36 25 Q39 20 44 18" stroke="#8B4513" stroke-width="2" fill="none" stroke-linecap="round"/>
  <rect x="30" y="20" width="4" height="8" fill="#C0C0C0"/>
  <path d="M32 15 Q30 10 25 8" stroke="#8B4513" stroke-width="2" fill="none" stroke-linecap="round"/>
  <path d="M32 15 Q34 10 39 8" stroke="#8B4513" stroke-width="2" fill="none" stroke-linecap="round"/>
  <rect x="25" y="25" width="14" height="8" fill="#2F2F2F" stroke="#000" stroke-width="1"/>
  <path d="M30 25 Q30 20 25 18" stroke="#C0C0C0" stroke-width="2" fill="none" stroke-linecap="round"/>
  <path d="M34 25 Q34 20 39 18" stroke="#C0C0C0" stroke-width="2" fill="none" stroke-linecap="round"/>
</svg>
