<svg width="64" height="64" viewBox="0 0 64 64" xmlns="http://www.w3.org/2000/svg">
  <ellipse cx="32" cy="35" rx="16" ry="18" fill="#8B0000" stroke="#4B0000" stroke-width="2"/>
  <circle cx="28" cy="30" r="3" fill="#FF0000"/>
  <circle cx="36" cy="30" r="3" fill="#FF0000"/>
  <path d="M32 40 Q30 45 25 47" stroke="#000" stroke-width="3" fill="none" stroke-linecap="round"/>
  <path d="M32 40 Q34 45 39 47" stroke="#000" stroke-width="3" fill="none" stroke-linecap="round"/>
  <path d="M16 35 Q12 30 8 25" stroke="#8B0000" stroke-width="5" fill="none" stroke-linecap="round"/>
  <path d="M48 35 Q52 30 56 25" stroke="#8B0000" stroke-width="5" fill="none" stroke-linecap="round"/>
  <path d="M20 25 Q15 20 10 15" stroke="#8B0000" stroke-width="4" fill="none" stroke-linecap="round"/>
  <path d="M44 25 Q49 20 54 15" stroke="#8B0000" stroke-width="4" fill="none" stroke-linecap="round"/>
  <path d="M32 53 Q30 58 25 60" stroke="#8B0000" stroke-width="4" fill="none" stroke-linecap="round"/>
  <path d="M32 53 Q34 58 39 60" stroke="#8B0000" stroke-width="4" fill="none" stroke-linecap="round"/>
  <path d="M28 25 Q25 20 20 18" stroke="#8B0000" stroke-width="3" fill="none" stroke-linecap="round"/>
  <path d="M36 25 Q39 20 44 18" stroke="#8B0000" stroke-width="3" fill="none" stroke-linecap="round"/>
  <path d="M32 15 Q30 10 25 8" stroke="#8B0000" stroke-width="3" fill="none" stroke-linecap="round"/>
  <path d="M32 15 Q34 10 39 8" stroke="#8B0000" stroke-width="3" fill="none" stroke-linecap="round"/>
  <path d="M32 20 Q30 15 25 12" stroke="#FF0000" stroke-width="2" fill="none" stroke-linecap="round"/>
  <path d="M32 20 Q34 15 39 12" stroke="#FF0000" stroke-width="2" fill="none" stroke-linecap="round"/>
  <path d="M32 20 Q30 25 25 28" stroke="#FF0000" stroke-width="2" fill="none" stroke-linecap="round"/>
  <path d="M32 20 Q34 25 39 28" stroke="#FF0000" stroke-width="2" fill="none" stroke-linecap="round"/>
  <path d="M32 12 Q30 8 25 6" stroke="#FF0000" stroke-width="2" fill="none" stroke-linecap="round"/>
  <path d="M32 12 Q34 8 39 6" stroke="#FF0000" stroke-width="2" fill="none" stroke-linecap="round"/>
</svg>
