<svg width="64" height="64" viewBox="0 0 64 64" xmlns="http://www.w3.org/2000/svg">
  <ellipse cx="32" cy="35" rx="18" ry="14" fill="#DC143C" stroke="#8B0000" stroke-width="2"/>
  <circle cx="28" cy="30" r="3" fill="#000"/>
  <circle cx="36" cy="30" r="3" fill="#000"/>
  <path d="M32 40 Q30 45 25 47" stroke="#000" stroke-width="3" fill="none" stroke-linecap="round"/>
  <path d="M32 40 Q34 45 39 47" stroke="#000" stroke-width="3" fill="none" stroke-linecap="round"/>
  <path d="M14 35 Q10 30 6 25" stroke="#DC143C" stroke-width="5" fill="none" stroke-linecap="round"/>
  <path d="M50 35 Q54 30 58 25" stroke="#DC143C" stroke-width="5" fill="none" stroke-linecap="round"/>
  <path d="M20 25 Q15 20 10 15" stroke="#DC143C" stroke-width="4" fill="none" stroke-linecap="round"/>
  <path d="M44 25 Q49 20 54 15" stroke="#DC143C" stroke-width="4" fill="none" stroke-linecap="round"/>
  <path d="M32 49 Q30 55 25 58" stroke="#DC143C" stroke-width="4" fill="none" stroke-linecap="round"/>
  <path d="M32 49 Q34 55 39 58" stroke="#DC143C" stroke-width="4" fill="none" stroke-linecap="round"/>
  <path d="M28 25 Q25 20 20 18" stroke="#DC143C" stroke-width="3" fill="none" stroke-linecap="round"/>
  <path d="M36 25 Q39 20 44 18" stroke="#DC143C" stroke-width="3" fill="none" stroke-linecap="round"/>
  <path d="M32 15 Q30 10 25 8" stroke="#DC143C" stroke-width="3" fill="none" stroke-linecap="round"/>
  <path d="M32 15 Q34 10 39 8" stroke="#DC143C" stroke-width="3" fill="none" stroke-linecap="round"/>
  <path d="M32 20 Q30 15 25 12" stroke="#FFD700" stroke-width="2" fill="none" stroke-linecap="round"/>
  <path d="M32 20 Q34 15 39 12" stroke="#FFD700" stroke-width="2" fill="none" stroke-linecap="round"/>
  <path d="M32 20 Q30 25 25 28" stroke="#FFD700" stroke-width="2" fill="none" stroke-linecap="round"/>
  <path d="M32 20 Q34 25 39 28" stroke="#FFD700" stroke-width="2" fill="none" stroke-linecap="round"/>
</svg>
