<svg width="64" height="64" viewBox="0 0 64 64" xmlns="http://www.w3.org/2000/svg">
  <ellipse cx="32" cy="35" rx="20" ry="22" fill="#8B4513" stroke="#654321" stroke-width="2"/>
  <circle cx="28" cy="30" r="4" fill="#000"/>
  <circle cx="36" cy="30" r="4" fill="#000"/>
  <path d="M32 40 Q30 45 25 47" stroke="#000" stroke-width="4" fill="none" stroke-linecap="round"/>
  <path d="M32 40 Q34 45 39 47" stroke="#000" stroke-width="4" fill="none" stroke-linecap="round"/>
  <path d="M12 35 Q8 30 4 25" stroke="#8B4513" stroke-width="6" fill="none" stroke-linecap="round"/>
  <path d="M52 35 Q56 30 60 25" stroke="#8B4513" stroke-width="6" fill="none" stroke-linecap="round"/>
  <path d="M16 25 Q11 20 6 15" stroke="#8B4513" stroke-width="5" fill="none" stroke-linecap="round"/>
  <path d="M48 25 Q53 20 58 15" stroke="#8B4513" stroke-width="5" fill="none" stroke-linecap="round"/>
  <path d="M32 57 Q30 62 25 64" stroke="#8B4513" stroke-width="5" fill="none" stroke-linecap="round"/>
  <path d="M32 57 Q34 62 39 64" stroke="#8B4513" stroke-width="5" fill="none" stroke-linecap="round"/>
  <path d="M28 25 Q25 20 20 18" stroke="#8B4513" stroke-width="4" fill="none" stroke-linecap="round"/>
  <path d="M36 25 Q39 20 44 18" stroke="#8B4513" stroke-width="4" fill="none" stroke-linecap="round"/>
  <path d="M32 15 Q30 10 25 8" stroke="#8B4513" stroke-width="4" fill="none" stroke-linecap="round"/>
  <path d="M32 15 Q34 10 39 8" stroke="#8B4513" stroke-width="4" fill="none" stroke-linecap="round"/>
  <rect x="30" y="20" width="4" height="12" fill="#654321"/>
  <path d="M32 15 Q30 10 25 8" stroke="#8B4513" stroke-width="2" fill="none" stroke-linecap="round"/>
  <path d="M32 15 Q34 10 39 8" stroke="#8B4513" stroke-width="2" fill="none" stroke-linecap="round"/>
  <path d="M32 20 Q30 15 25 12" stroke="#8B4513" stroke-width="2" fill="none" stroke-linecap="round"/>
  <path d="M32 20 Q34 15 39 12" stroke="#8B4513" stroke-width="2" fill="none" stroke-linecap="round"/>
  <path d="M32 20 Q30 25 25 28" stroke="#8B4513" stroke-width="2" fill="none" stroke-linecap="round"/>
  <path d="M32 20 Q34 25 39 28" stroke="#8B4513" stroke-width="2" fill="none" stroke-linecap="round"/>
</svg>
