<svg width="64" height="64" viewBox="0 0 64 64" xmlns="http://www.w3.org/2000/svg">
  <!-- Goblin Body -->
  <circle cx="32" cy="40" r="18" fill="#4a7c59" stroke="#2d4a2d" stroke-width="2"/>
  
  <!-- Goblin Head -->
  <circle cx="32" cy="24" r="12" fill="#8b4513" stroke="#654321" stroke-width="2"/>
  
  <!-- Ears -->
  <ellipse cx="22" cy="20" rx="3" ry="5" fill="#8b4513" transform="rotate(-20 22 20)"/>
  <ellipse cx="42" cy="20" rx="3" ry="5" fill="#8b4513" transform="rotate(20 42 20)"/>
  
  <!-- Eyes -->
  <circle cx="28" cy="22" r="2" fill="#ff0000"/>
  <circle cx="36" cy="22" r="2" fill="#ff0000"/>
  
  <!-- Mouth -->
  <path d="M28 28 Q32 32 36 28" stroke="#000" stroke-width="2" fill="none"/>
  
  <!-- Teeth -->
  <rect x="30" y="26" width="1" height="3" fill="#fff"/>
  <rect x="33" y="26" width="1" height="3" fill="#fff"/>
  
  <!-- Arms -->
  <ellipse cx="20" cy="35" rx="4" ry="8" fill="#4a7c59" transform="rotate(-30 20 35)"/>
  <ellipse cx="44" cy="35" rx="4" ry="8" fill="#4a7c59" transform="rotate(30 44 35)"/>
  
  <!-- Legs -->
  <ellipse cx="28" cy="55" rx="5" ry="8" fill="#2d4a2d"/>
  <ellipse cx="36" cy="55" rx="5" ry="8" fill="#2d4a2d"/>
  
  <!-- Weapon (crude club) -->
  <rect x="15" y="30" width="2" height="12" fill="#8b4513"/>
  <circle cx="16" cy="28" r="3" fill="#654321"/>
</svg>