<svg width="64" height="64" viewBox="0 0 64 64" xmlns="http://www.w3.org/2000/svg">
  <ellipse cx="32" cy="35" rx="16" ry="12" fill="#808080" stroke="#696969" stroke-width="2"/>
  <circle cx="28" cy="30" r="3" fill="#000"/>
  <circle cx="36" cy="30" r="3" fill="#000"/>
  <ellipse cx="32" cy="38" rx="4" ry="2" fill="#000"/>
  <path d="M16 35 Q12 30 8 25" stroke="#808080" stroke-width="3" fill="none" stroke-linecap="round"/>
  <path d="M48 35 Q52 30 56 25" stroke="#808080" stroke-width="3" fill="none" stroke-linecap="round"/>
  <path d="M20 25 Q15 20 10 15" stroke="#808080" stroke-width="2" fill="none" stroke-linecap="round"/>
  <path d="M44 25 Q49 20 54 15" stroke="#808080" stroke-width="2" fill="none" stroke-linecap="round"/>
  <path d="M32 47 Q30 50 25 52" stroke="#808080" stroke-width="2" fill="none" stroke-linecap="round"/>
  <path d="M32 47 Q34 50 39 52" stroke="#808080" stroke-width="2" fill="none" stroke-linecap="round"/>
  <path d="M28 25 Q25 20 20 18" stroke="#808080" stroke-width="2" fill="none" stroke-linecap="round"/>
  <path d="M36 25 Q39 20 44 18" stroke="#808080" stroke-width="2" fill="none" stroke-linecap="round"/>
</svg>
